<svg width="1806" height="1024" viewBox="0 0 1806 1024" fill="none" xmlns="http://www.w3.org/2000/svg">
<g opacity="0.2">
<path d="M809.027 604.382C792.56 462.934 966.715 383.052 1063.18 487.807L1093.98 521.256C1137.12 568.104 1205.52 581.845 1263.4 555.294L1304.73 536.336C1434.17 476.966 1563.96 617.912 1494.14 742.024L1471.85 781.655C1440.62 837.16 1448.69 906.457 1491.83 953.305L1522.63 986.755C1619.09 1091.51 1525.15 1258.5 1385.54 1230.45L1340.96 1221.5C1278.52 1208.95 1215.11 1238.04 1183.89 1293.54L1161.59 1333.17C1091.77 1457.29 903.925 1419.55 887.458 1278.1L882.2 1232.93C874.836 1169.68 827.577 1118.35 765.14 1105.81L720.56 1096.85C580.947 1068.8 558.791 878.489 688.227 819.119L729.558 800.161C787.444 773.61 821.649 712.805 814.285 649.548L809.027 604.382Z" fill="#D9D9D9" fill-opacity="0.35"/>
<g filter="url(#filter0_i_143_466)">
<path d="M963.161 759.275C955.208 690.957 1039.32 652.374 1085.91 702.97L1098.82 716.989C1119.66 739.616 1152.7 746.253 1180.65 733.429L1197.97 725.484C1260.49 696.808 1323.18 764.884 1289.46 824.829L1280.11 841.438C1265.03 868.247 1268.93 901.717 1289.76 924.344L1302.67 938.363C1349.26 988.958 1303.89 1069.61 1236.46 1056.07L1217.78 1052.31C1187.62 1046.25 1156.99 1060.3 1141.91 1087.11L1132.57 1103.72C1098.85 1163.67 1008.12 1145.44 1000.16 1077.12L997.96 1058.19C994.403 1027.64 971.577 1002.85 941.421 996.792L922.737 993.038C855.305 979.491 844.604 887.569 907.121 858.894L924.442 850.949C952.401 838.125 968.922 808.757 965.365 778.204L963.161 759.275Z" fill="#D9D9D9"/>
</g>
</g>
<defs>
<filter id="filter0_i_143_466" x="865.701" y="679.844" width="460.017" height="464.125" filterUnits="userSpaceOnUse" color-interpolation-filters="sRGB">
<feFlood flood-opacity="0" result="BackgroundImageFix"/>
<feBlend mode="normal" in="SourceGraphic" in2="BackgroundImageFix" result="shape"/>
<feColorMatrix in="SourceAlpha" type="matrix" values="0 0 0 0 0 0 0 0 0 0 0 0 0 0 0 0 0 0 127 0" result="hardAlpha"/>
<feOffset dx="4" dy="4"/>
<feGaussianBlur stdDeviation="11"/>
<feComposite in2="hardAlpha" operator="arithmetic" k2="-1" k3="1"/>
<feColorMatrix type="matrix" values="0 0 0 0 0 0 0 0 0 0 0 0 0 0 0 0 0 0 0.25 0"/>
<feBlend mode="normal" in2="shape" result="effect1_innerShadow_143_466"/>
</filter>
</defs>
</svg>
