<svg width="139" height="140" viewBox="0 0 139 140" fill="none" xmlns="http://www.w3.org/2000/svg">
<path d="M60.9405 45.3435C63.6347 37.0517 75.3653 37.0517 78.0595 45.3435L79.2664 49.0578C80.4712 52.766 83.9268 55.2766 87.8259 55.2766H91.7313C100.45 55.2766 104.075 66.4331 97.0214 71.5578L93.8618 73.8533C90.7074 76.1451 89.3875 80.2074 90.5924 83.9156L91.7992 87.6299C94.4934 95.9217 85.0031 102.817 77.9496 97.6922L74.7901 95.3967C71.6357 93.1049 67.3643 93.1049 64.2099 95.3967L61.0504 97.6922C53.9969 102.817 44.5066 95.9217 47.2008 87.6299L48.4076 83.9156C49.6125 80.2074 48.2926 76.1451 45.1382 73.8533L41.9786 71.5578C34.9252 66.4332 38.5502 55.2766 47.2687 55.2766H51.1741C55.0732 55.2766 58.5288 52.766 59.7336 49.0578L60.9405 45.3435Z" fill="white"/>
<path d="M60.9405 45.3435C63.6347 37.0517 75.3653 37.0517 78.0595 45.3435L79.2664 49.0578C80.4712 52.766 83.9268 55.2766 87.8259 55.2766H91.7313C100.45 55.2766 104.075 66.4331 97.0214 71.5578L93.8618 73.8533C90.7074 76.1451 89.3875 80.2074 90.5924 83.9156L91.7992 87.6299C94.4934 95.9217 85.0031 102.817 77.9496 97.6922L74.7901 95.3967C71.6357 93.1049 67.3643 93.1049 64.2099 95.3967L61.0504 97.6922C53.9969 102.817 44.5066 95.9217 47.2008 87.6299L48.4076 83.9156C49.6125 80.2074 48.2926 76.1451 45.1382 73.8533L41.9786 71.5578C34.9252 66.4332 38.5502 55.2766 47.2687 55.2766H51.1741C55.0732 55.2766 58.5288 52.766 59.7336 49.0578L60.9405 45.3435Z" fill="white"/>
<path d="M60.9405 45.3435C63.6347 37.0517 75.3653 37.0517 78.0595 45.3435L79.2664 49.0578C80.4712 52.766 83.9268 55.2766 87.8259 55.2766H91.7313C100.45 55.2766 104.075 66.4331 97.0214 71.5578L93.8618 73.8533C90.7074 76.1451 89.3875 80.2074 90.5924 83.9156L91.7992 87.6299C94.4934 95.9217 85.0031 102.817 77.9496 97.6922L74.7901 95.3967C71.6357 93.1049 67.3643 93.1049 64.2099 95.3967L61.0504 97.6922C53.9969 102.817 44.5066 95.9217 47.2008 87.6299L48.4076 83.9156C49.6125 80.2074 48.2926 76.1451 45.1382 73.8533L41.9786 71.5578C34.9252 66.4332 38.5502 55.2766 47.2687 55.2766H51.1741C55.0732 55.2766 58.5288 52.766 59.7336 49.0578L60.9405 45.3435Z" fill="white"/>
<path d="M60.9405 45.3435C63.6347 37.0517 75.3653 37.0517 78.0595 45.3435L79.2664 49.0578C80.4712 52.766 83.9268 55.2766 87.8259 55.2766H91.7313C100.45 55.2766 104.075 66.4331 97.0214 71.5578L93.8618 73.8533C90.7074 76.1451 89.3875 80.2074 90.5924 83.9156L91.7992 87.6299C94.4934 95.9217 85.0031 102.817 77.9496 97.6922L74.7901 95.3967C71.6357 93.1049 67.3643 93.1049 64.2099 95.3967L61.0504 97.6922C53.9969 102.817 44.5066 95.9217 47.2008 87.6299L48.4076 83.9156C49.6125 80.2074 48.2926 76.1451 45.1382 73.8533L41.9786 71.5578C34.9252 66.4332 38.5502 55.2766 47.2687 55.2766H51.1741C55.0732 55.2766 58.5288 52.766 59.7336 49.0578L60.9405 45.3435Z" fill="white"/>
<g filter="url(#filter0_f_503_2)">
<path d="M60.8629 43.4558C63.3897 34.8289 75.6103 34.8289 78.1371 43.4558L79.3919 47.7395C80.5152 51.5746 84.0328 54.2097 88.029 54.2097H93.9215C102.413 54.2097 106.18 64.8887 99.5692 70.2171L93.2502 75.31C90.4179 77.5928 89.2382 81.3562 90.2608 84.8472L92.2878 91.7676C94.7654 100.227 84.8658 106.836 78.003 101.305L75.1477 99.0036C71.8512 96.3468 67.1488 96.3468 63.8523 99.0036L60.997 101.305C54.1342 106.836 44.2346 100.227 46.7122 91.7676L48.7392 84.8472C49.7618 81.3562 48.5821 77.5928 45.7498 75.31L39.4307 70.2171C32.8195 64.8887 36.5873 54.2097 45.0784 54.2097H50.971C54.9672 54.2097 58.4848 51.5746 59.6081 47.7395L60.8629 43.4558Z" fill="white" fill-opacity="0.5"/>
</g>
<defs>
<filter id="filter0_f_503_2" x="0.0606689" y="0.985596" width="138.879" height="138.353" filterUnits="userSpaceOnUse" color-interpolation-filters="sRGB">
<feFlood flood-opacity="0" result="BackgroundImageFix"/>
<feBlend mode="normal" in="SourceGraphic" in2="BackgroundImageFix" result="shape"/>
<feGaussianBlur stdDeviation="18" result="effect1_foregroundBlur_503_2"/>
</filter>
</defs>
</svg>
