<svg width="111" height="94" viewBox="0 0 111 94" fill="none" xmlns="http://www.w3.org/2000/svg">
<g filter="url(#filter0_i_445_262)">
<path d="M55.9109 7.30372C64.6675 -5.33747 84.421 -0.375345 85.2625 14.6769L85.9204 26.4464C86.298 33.2005 91.0012 38.8534 97.628 40.5181L107.845 43.0846C123.087 46.9133 123.619 67.9547 108.611 73.3556L100.551 76.2562C93.6881 78.7262 89.2133 85.3516 89.6104 92.4557L90.1232 101.627C90.9753 116.872 71.5351 124.906 61.6071 113.412L53.4357 103.952C49.1724 99.016 42.185 97.2607 35.8606 99.5367L23.7385 103.899C9.01056 109.199 -3.54044 93.1291 5.32796 80.3265L10.6635 72.624C14.7962 66.6579 14.4545 58.8225 9.82799 53.4663L4.39477 47.1761C-5.72194 35.4639 5.96161 17.4912 21.2032 21.32L31.4201 23.8865C38.047 25.5511 45.1349 22.8602 49.0641 17.188L55.9109 7.30372Z" fill="#B74C85" fill-opacity="0.4"/>
</g>
<defs>
<filter id="filter0_i_445_262" x="0.604187" y="0.100098" width="120.973" height="119.754" filterUnits="userSpaceOnUse" color-interpolation-filters="sRGB">
<feFlood flood-opacity="0" result="BackgroundImageFix"/>
<feBlend mode="normal" in="SourceGraphic" in2="BackgroundImageFix" result="shape"/>
<feColorMatrix in="SourceAlpha" type="matrix" values="0 0 0 0 0 0 0 0 0 0 0 0 0 0 0 0 0 0 127 0" result="hardAlpha"/>
<feOffset dx="2" dy="1"/>
<feGaussianBlur stdDeviation="3"/>
<feComposite in2="hardAlpha" operator="arithmetic" k2="-1" k3="1"/>
<feColorMatrix type="matrix" values="0 0 0 0 0 0 0 0 0 0 0 0 0 0 0 0 0 0 0.25 0"/>
<feBlend mode="normal" in2="shape" result="effect1_innerShadow_445_262"/>
</filter>
</defs>
</svg>
